<?xml version="1.0" encoding="utf-8"?>
<!-- Generator: Adobe Illustrator 15.0.0, SVG Export Plug-In . SVG Version: 6.00 Build 0)  -->
<!DOCTYPE svg PUBLIC "-//W3C//DTD SVG 1.1//EN" "http://www.w3.org/Graphics/SVG/1.1/DTD/svg11.dtd">
<svg version="1.1" xmlns="http://www.w3.org/2000/svg" xmlns:xlink="http://www.w3.org/1999/xlink" x="0px" y="0px" width="51px"
	 height="19px" viewBox="0 0 51 19" enable-background="new 0 0 51 19" xml:space="preserve">
<g id="图层_1">
	<path opacity="0.8" fill="#767575" d="M50.75,17.582c0,0.783-0.64,1.418-1.431,1.418H1.514c-0.79,0-1.431-0.635-1.431-1.418V2.584
		c0-0.783,0.641-1.417,1.431-1.417h47.806c0.791,0,1.431,0.635,1.431,1.417V17.582z"/>
	<linearGradient id="SVGID_1_" gradientUnits="userSpaceOnUse" x1="25.4995" y1="-2.3149" x2="25.4995" y2="17.5799">
		<stop  offset="0.0847" style="stop-color:#1B4400"/>
		<stop  offset="0.1249" style="stop-color:#35610C"/>
		<stop  offset="0.1935" style="stop-color:#5C8C1E"/>
		<stop  offset="0.2471" style="stop-color:#74A62A"/>
		<stop  offset="0.2788" style="stop-color:#7DB02E"/>
		<stop  offset="0.8942" style="stop-color:#598235"/>
		<stop  offset="1" style="stop-color:#53851E"/>
	</linearGradient>
	<path fill="url(#SVGID_1_)" d="M50.75,16.666c0,0.783-0.634,1.418-1.417,1.418H1.667c-0.782,0-1.417-0.635-1.417-1.418V1.667
		c0-0.783,0.635-1.417,1.417-1.417h47.666c0.783,0,1.417,0.635,1.417,1.417V16.666z"/>
	<path fill="#4A7033" d="M49.333,18.334H1.667C0.748,18.334,0,17.586,0,16.666V1.667C0,0.748,0.748,0,1.667,0h47.666
		C50.252,0,51,0.748,51,1.667v14.999C51,17.586,50.252,18.334,49.333,18.334z M1.667,0.5C1.023,0.5,0.5,1.024,0.5,1.667v14.999
		c0,0.644,0.523,1.168,1.167,1.168h47.666c0.644,0,1.167-0.524,1.167-1.168V1.667c0-0.644-0.523-1.167-1.167-1.167H1.667z"/>
	<g>
		<path opacity="0.15" fill="#231815" d="M47.633,15.559c0,0.574-0.467,1.041-1.041,1.041H23.717c-0.576,0-1.041-0.467-1.041-1.041
			V3.807c0-0.575,0.465-1.041,1.041-1.041h22.875c0.574,0,1.041,0.466,1.041,1.041V15.559z"/>
		<linearGradient id="SVGID_2_" gradientUnits="userSpaceOnUse" x1="35.1543" y1="1.8491" x2="35.1543" y2="15.4332">
			<stop  offset="0" style="stop-color:#DCDDDD"/>
			<stop  offset="0.0485" style="stop-color:#E9EAEA"/>
			<stop  offset="0.1214" style="stop-color:#F6F6F6"/>
			<stop  offset="0.22" style="stop-color:#FDFDFD"/>
			<stop  offset="0.4545" style="stop-color:#FFFFFF"/>
			<stop  offset="0.7229" style="stop-color:#FDFDFD"/>
			<stop  offset="0.8196" style="stop-color:#F6F6F6"/>
			<stop  offset="0.8885" style="stop-color:#EBEBEB"/>
			<stop  offset="0.9438" style="stop-color:#DADADA"/>
			<stop  offset="0.9758" style="stop-color:#CCCCCC"/>
		</linearGradient>
		<path fill="url(#SVGID_2_)" d="M47.633,14.809c0,0.574-0.467,1.041-1.041,1.041H23.717c-0.576,0-1.041-0.467-1.041-1.041V3.057
			c0-0.575,0.465-1.041,1.041-1.041h22.875c0.574,0,1.041,0.466,1.041,1.041V14.809z"/>
		<g opacity="0.24">
			<rect x="33.183" y="5.349" fill="#ACACAB" width="0.748" height="7.084"/>
			<rect x="34.975" y="5.349" fill="#ACACAB" width="0.748" height="7.084"/>
			<rect x="36.766" y="5.349" fill="#ACACAB" width="0.748" height="7.084"/>
		</g>
		<g>
			<rect x="32.988" y="5.162" fill="#ACACAB" width="0.748" height="7.084"/>
			<rect x="34.78" y="5.162" fill="#ACACAB" width="0.748" height="7.084"/>
			<rect x="36.571" y="5.162" fill="#ACACAB" width="0.748" height="7.084"/>
		</g>
	</g>
</g>
<g id="图层_2">
	<path opacity="0.8" fill="#767575" d="M50.75,17.582c0,0.783-0.64,1.418-1.431,1.418H1.514c-0.79,0-1.431-0.635-1.431-1.418V2.584
		c0-0.783,0.641-1.418,1.431-1.418h47.806c0.791,0,1.431,0.635,1.431,1.418V17.582z"/>
	<linearGradient id="SVGID_3_" gradientUnits="userSpaceOnUse" x1="25.7495" y1="-1.1763" x2="25.7495" y2="18.644">
		<stop  offset="0.0847" style="stop-color:#646465"/>
		<stop  offset="0.091" style="stop-color:#666667"/>
		<stop  offset="0.209" style="stop-color:#7F8080"/>
		<stop  offset="0.2788" style="stop-color:#898A89"/>
		<stop  offset="0.8942" style="stop-color:#636464"/>
		<stop  offset="1" style="stop-color:#636464"/>
	</linearGradient>
	<path fill="url(#SVGID_3_)" d="M51,16.416c0,0.783-0.634,1.418-1.417,1.418H1.917c-0.782,0-1.417-0.635-1.417-1.418V1.417
		C0.5,0.635,1.135,0,1.917,0h47.666C50.366,0,51,0.635,51,1.417V16.416z"/>
	<path fill="#595959" d="M49.333,18.334H1.667C0.748,18.334,0,17.586,0,16.666V1.667C0,0.749,0.748,0,1.667,0h47.666
		C50.252,0,51,0.749,51,1.667v14.999C51,17.586,50.252,18.334,49.333,18.334z M1.667,0.5C1.023,0.5,0.5,1.024,0.5,1.667v14.999
		c0,0.645,0.523,1.168,1.167,1.168h47.666c0.644,0,1.167-0.523,1.167-1.168V1.667c0-0.644-0.523-1.167-1.167-1.167H1.667z"/>
	<g>
		<path opacity="0.15" fill="#231815" d="M28.305,15.563c0,0.574-0.467,1.041-1.041,1.041H4.389c-0.576,0-1.041-0.467-1.041-1.041
			V3.811c0-0.574,0.465-1.041,1.041-1.041h22.875c0.574,0,1.041,0.467,1.041,1.041V15.563z"/>
		<linearGradient id="SVGID_4_" gradientUnits="userSpaceOnUse" x1="15.8257" y1="1.853" x2="15.8257" y2="15.4371">
			<stop  offset="0" style="stop-color:#DCDDDD"/>
			<stop  offset="0.0485" style="stop-color:#E9EAEA"/>
			<stop  offset="0.1214" style="stop-color:#F6F6F6"/>
			<stop  offset="0.22" style="stop-color:#FDFDFD"/>
			<stop  offset="0.4545" style="stop-color:#FFFFFF"/>
			<stop  offset="0.7229" style="stop-color:#FDFDFD"/>
			<stop  offset="0.8196" style="stop-color:#F6F6F6"/>
			<stop  offset="0.8885" style="stop-color:#EBEBEB"/>
			<stop  offset="0.9438" style="stop-color:#DADADA"/>
			<stop  offset="0.9758" style="stop-color:#CCCCCC"/>
		</linearGradient>
		<path fill="url(#SVGID_4_)" d="M28.305,14.813c0,0.574-0.467,1.041-1.041,1.041H4.389c-0.576,0-1.041-0.467-1.041-1.041V3.061
			c0-0.574,0.465-1.041,1.041-1.041h22.875c0.574,0,1.041,0.467,1.041,1.041V14.813z"/>
		<g opacity="0.24">
			<rect x="13.854" y="5.354" fill="#ACACAB" width="0.748" height="7.084"/>
			<rect x="15.646" y="5.354" fill="#ACACAB" width="0.748" height="7.084"/>
			<rect x="17.438" y="5.354" fill="#ACACAB" width="0.748" height="7.084"/>
		</g>
		<g>
			<rect x="13.66" y="5.166" fill="#ACACAB" width="0.748" height="7.084"/>
			<rect x="15.452" y="5.166" fill="#ACACAB" width="0.748" height="7.084"/>
			<rect x="17.243" y="5.166" fill="#ACACAB" width="0.748" height="7.084"/>
		</g>
	</g>
</g>
<g id="图层_3" display="none">
</g>
<g id="图层_4">
</g>
</svg>
